<svg width="36" height="31" viewBox="0 0 36 31" fill="none" xmlns="http://www.w3.org/2000/svg">
<path d="M34.6734 15.1342C33.4948 12.6333 30.8851 13.6337 28.9489 14.3839L25.0765 16.1345L24.1504 10.2992C23.9821 9.38224 23.8137 7.79837 22.4668 7.13148C21.6249 6.71467 19.9413 7.46493 19.0152 7.88173L15.7321 9.38225C15.5637 8.21518 15.3954 5.46425 15.0586 4.38054C14.7219 3.13012 13.7959 1.87969 12.6173 1.29616C11.2704 0.79599 10.0918 0.962712 8.74487 1.54624L7.14539 2.21314C7.14539 2.21314 10.8495 9.54897 6.5561 14.4673L1 16.8014L7.14539 29.8892L30.5484 20.1359C32.4846 19.2189 36.1045 18.0519 34.6734 15.1342Z" stroke="white" stroke-width="1.75477" stroke-miterlimit="10" stroke-linejoin="round"/>
<path d="M6.3866 14.8L12.6162 27.5543" stroke="white" stroke-width="1.75477" stroke-miterlimit="10" stroke-linejoin="round"/>
</svg>
