<svg width="47" height="34" viewBox="0 0 47 34" fill="none" xmlns="http://www.w3.org/2000/svg">
<path d="M2.66919 25.3163L21.6111 16.2554M2.5939 25.4662C2.5939 25.3913 2.5939 25.3913 2.5939 25.3913C2.51862 25.2414 2.44334 25.0915 2.36805 24.9416C1.61522 23.4428 2.06692 21.7191 3.27145 20.7448C3.4973 20.595 3.79844 20.4451 4.02429 20.2952C4.17486 20.1453 4.40071 20.1453 4.55127 19.9954C4.55127 19.9205 4.55127 19.9205 4.55127 19.9205C4.17485 19.0212 3.949 18.0469 4.02429 17.0726C4.17486 14.9743 5.37939 13.1007 7.41204 12.1264C8.61658 11.5269 9.97168 11.377 11.2515 11.6768C9.82111 8.22941 11.3268 4.25744 14.7145 2.68365C18.1776 1.03491 22.3934 2.45882 24.0497 5.98113C24.125 6.13101 24.2002 6.35584 24.2755 6.50572C24.5014 6.35584 24.7272 6.20595 25.0284 6.05607C26.6846 5.30664 28.642 5.83124 29.6207 7.33009C29.9218 7.03032 30.2229 6.80549 30.5993 6.65561C32.4061 5.83124 34.5894 6.58067 35.4175 8.37929C35.7939 9.12872 36.0614 10.0905 36.0614 10.0905L29.6207 13.173" stroke="white" stroke-width="2.07143" stroke-miterlimit="10" stroke-linecap="round" stroke-linejoin="round"/>
<path d="M20.4659 19.5837C20.6901 17.1301 22.11 14.9065 24.5013 13.833C27.7894 12.2995 31.7501 13.5263 33.6931 16.5934C34.0667 16.2867 34.4404 16.0566 34.8888 15.8266C36.757 14.9832 38.9242 15.3666 40.344 16.7467C40.643 16.44 41.0166 16.21 41.465 16.1333C42.6607 15.8266 44.0058 16.2867 44.7531 17.2835C45.2015 17.8969 45.351 18.5869 45.351 19.277L34.0667 24.1076L33.7678 24.2609L14.1139 32.6952C12.3203 29.0915 13.8149 24.8743 17.402 23.2641C18.4482 22.8041 19.6439 22.5741 20.7648 22.6507C20.7648 22.6507 20.4659 22.0373 20.3912 20.8872C20.3912 20.6572 20.3912 19.7371 20.4659 19.5837Z" stroke="white" stroke-width="2.07143" stroke-miterlimit="10" stroke-linecap="round" stroke-linejoin="round"/>
</svg>
