<svg width="41" height="44" viewBox="0 0 41 44" fill="none" xmlns="http://www.w3.org/2000/svg">
<path d="M7.31011 26.9285L1 29.1599L8.09888 30.8765L1.70112 37.3134L12.4809 34.1378L12.7438 42.6346L20.3685 34.8244L29.0449 36.9701L27.0292 31.9064L40 30.9623L30.1843 26.9285" stroke="white" stroke-width="1.75477" stroke-miterlimit="10" stroke-linecap="round" stroke-linejoin="round"/>
<path d="M19.2289 18.6029L12.2176 21.6926C12.0424 21.7785 11.8671 21.6926 11.7794 21.521L7.83561 12.9384C7.74797 12.7668 7.83561 12.5951 8.01089 12.5093L15.0221 9.41958C15.1974 9.33376 15.3727 9.41958 15.4603 9.59123L19.4041 18.1738C19.4041 18.3454 19.4041 18.5171 19.2289 18.6029ZM20.7188 14.8266C21.4199 16.3715 23.348 17.0581 24.9255 16.3715L31.5862 13.4534C33.1637 12.7668 33.8648 10.8786 33.1637 9.33376L30.1839 2.81101C29.4828 1.26615 27.5547 0.579543 25.9772 1.26615L19.3165 4.18422C17.739 4.87082 17.0379 6.75899 17.739 8.30385L20.7188 14.8266ZM25.8895 1.26615L12.9188 7.01647C12.7435 7.01647 12.5682 7.01646 12.4806 6.93064L8.18617 8.8188C8.18617 8.90463 8.09853 9.07628 8.01089 9.16211L6.9592 9.59123C5.29404 10.2778 4.59291 12.166 5.38168 13.7967L11.1659 26.2414C11.7794 27.443 13.1817 28.0437 14.4963 27.443L34.1277 18.7746C35.7929 18.088 36.494 16.1998 35.7053 14.5691L30.1839 2.89683C29.4828 1.26615 27.5547 0.579543 25.8895 1.26615ZM28.3435 7.53142C29.0446 9.07628 28.3435 10.9644 26.7659 11.651C25.1884 12.3377 23.2603 11.651 22.5592 10.1062C21.8581 8.56132 22.5592 6.67316 24.1367 5.98656C25.7143 5.29995 27.6423 5.98656 28.3435 7.53142Z" stroke="white" stroke-width="1.75477" stroke-miterlimit="10" stroke-linejoin="round"/>
</svg>
